<svg version="1.0" xmlns="http://www.w3.org/2000/svg" width="779.000000pt" height="753.000000pt" viewBox="0 0 779.000000 753.000000" preserveAspectRatio="xMidYMid meet">

<g transform="translate(0.000000,753.000000) scale(0.100000,-0.100000)" fill="#00A8C6" stroke="none">
<path d="M3498 6960 c-40 -31 -47 -64 -55 -260 l-8 -185 -67 -6 c-115 -10 -188 -83 -188 -190 0 -54 -7 -65 -45 -75 -56 -13 -170 -68 -240 -115 -49 -32 -220 -196 -551 -526 -461 -459 -483 -482 -518 -555 -36 -76 -66 -196 -66 -266 0 -21 7 -68 15 -107 51 -243 248 -387 530 -387 50 0 121 7 159 16 129 30 285 117 388 214 l37 35 63 -13 c35 -6 141 -36 237 -66 96 -29 195 -56 220 -60 25 -4 51 -9 58 -13 8 -4 -15 -39 -68 -101 -45 -52 -154 -180 -243 -285 -317 -372 -465 -590 -565 -836 -65 -158 -86 -256 -86 -396 l0 -122 -40 -18 c-57 -26 -147 -119 -178 -184 -38 -81 -47 -157 -47 -405 l0 -220 -69 3 c-82 5 -177 -9 -227 -33 -54 -26 -111 -91 -134 -153 -20 -52 -21 -72 -18 -455 l3 -401 29 -53 c32 -57 81 -102 143 -130 36 -16 148 -17 1788 -17 l1750 0 57 28 c32 16 73 46 92 69 65 75 66 87 66 528 l0 397 -31 61 c-17 36 -46 74 -69 92 -67 53 -99 61 -254 63 l-141 2 -5 275 -5 275 -33 67 c-37 76 -104 147 -179 190 l-52 29 -6 62 c-16 149 27 362 140 702 232 695 294 1221 200 1690 -70 349 -218 631 -464 888 -196 204 -442 368 -721 481 -76 30 -80 34 -138 114 -79 111 -203 251 -280 318 -58 49 -68 54 -111 54 -33 0 -56 -6 -73 -20z m295 -474 c103 -145 97 -140 191 -171 259 -84 579 -297 747 -498 222 -266 338 -549 379 -919 37 -345 -37 -851 -190 -1295 -123 -356 -160 -499 -181 -694 -6 -57 -9 -127 -6 -156 l6 -53 -1009 0 -1009 0 -7 36 c-19 102 28 284 119 464 102 201 243 400 482 679 555 650 543 633 515 702 -14 33 -55 59 -93 59 -13 0 -45 -7 -72 -16 -82 -28 -211 -15 -385 41 -169 54 -318 92 -400 101 l-58 6 -84 -78 c-148 -137 -271 -194 -422 -195 -168 -1 -259 42 -311 146 -26 53 -30 70 -30 145 0 75 4 93 33 155 30 63 52 88 215 244 100 96 308 301 462 456 154 156 302 297 328 315 61 41 149 76 235 96 120 27 132 41 132 163 l0 77 71 11 c86 14 138 46 174 107 22 38 28 62 32 141 l6 95 36 -41 c20 -23 62 -78 94 -123z m1105 -4025 c47 -24 77 -56 97 -103 12 -30 15 -83 15 -276 l0 -239 -41 -7 c-59 -9 -2492 -7 -2507 3 -11 6 -13 61 -10 252 3 265 5 273 65 333 57 58 -6 55 1216 56 1089 0 1129 -1 1165 -19z m569 -842 c15 -5 31 -16 35 -22 10 -15 10 -748 0 -763 -22 -34 -33 -34 -1752 -34 l-1701 0 -24 25 -25 24 0 361 c0 237 4 368 11 381 6 11 20 24 32 29 33 13 3389 13 3424 -1z" fill="#00A8C6"/>
</g>
</svg>